<svg xmlns="http://www.w3.org/2000/svg" viewBox="0 0 114.08 114.26"><defs><style>.cls-1{isolation:isolate;}.cls-2,.cls-6{fill:#fff;}.cls-3{opacity:0.6;}.cls-4{opacity:0.5;}.cls-10,.cls-14,.cls-5,.cls-8,.cls-9{fill:none;}.cls-5,.cls-6{stroke:#d0e2f7;}.cls-10,.cls-12,.cls-14,.cls-15,.cls-5,.cls-6,.cls-9{stroke-linecap:round;stroke-linejoin:round;stroke-width:1.5px;}.cls-7{fill:#f2a58e;}.cls-9{stroke:#ed6e47;}.cls-10{stroke:#a7bdd9;}.cls-11{opacity:0.1;mix-blend-mode:multiply;}.cls-12{fill:#294260;}.cls-12,.cls-14,.cls-15{stroke:#294260;}.cls-13,.cls-15{fill:#d0e2f7;}</style></defs><title>Asset 95</title><g class="cls-1"><g id="Layer_2" data-name="Layer 2"><g id="Layer_6" data-name="Layer 6"><circle class="cls-2" cx="57.04" cy="57.22" r="57.04"/><g class="cls-3"><g class="cls-4"><path class="cls-5" d="M42.77,20a39,39,0,0,1,40.55,8.3"/><rect class="cls-5" x="31.08" y="36.04" width="51.93" height="51.93"/><rect class="cls-5" x="26.29" y="26.47" width="61.5" height="61.5" rx="30.75" ry="30.75"/><path class="cls-5" d="M85.76,30.81c.34.4.68.79,1,1.2"/><path class="cls-5" d="M89.33,35.57a39,39,0,0,1,3,36.31"/><path class="cls-5" d="M74.66,91A39.08,39.08,0,0,1,38,90.89"/><path class="cls-5" d="M26.91,82A39.29,39.29,0,0,1,19.6,69.39"/><path class="cls-5" d="M18.45,65.44A39.12,39.12,0,0,1,32.79,25.49"/><circle class="cls-6" cx="56.43" cy="17.51" r="3.43"/><circle class="cls-7" cx="20.33" cy="70.82" r="2.2"/><circle class="cls-7" cx="87.02" cy="31.87" r="2.74"/><circle class="cls-7" cx="39.98" cy="59.2" r="1.76"/><circle class="cls-7" cx="56.71" cy="95.51" r="1.76"/><circle class="cls-7" cx="88.1" cy="77.74" r="1.76"/><circle class="cls-8" cx="57.04" cy="57.04" r="57.04"/></g></g><path class="cls-9" d="M58.74,24.86c0,1.67-3.48,2.55-3.48,4s3.48,2.32,3.48,4"/><path class="cls-9" d="M55.26,32.88c0-1.67,3.48-2.55,3.48-4s-3.48-2.32-3.48-4"/><path class="cls-10" d="M42.16,84.4h0a1.66,1.66,0,0,1-.82-2.18l9.81-22.29,4.17,2-11,21.74A1.66,1.66,0,0,1,42.16,84.4Z"/><path class="cls-10" d="M32.82,39.15,51.73,48.6l1.39-2.93L33.86,37a1.22,1.22,0,0,0-1.59.58h0A1.22,1.22,0,0,0,32.82,39.15Z"/><path class="cls-10" d="M71.93,84.4h0a1.66,1.66,0,0,0,.81-2.18L62.93,59.93l-4.17,2,11,21.74A1.67,1.67,0,0,0,71.93,84.4Z"/><path class="cls-10" d="M81.26,39.15,62.35,48.6,61,45.67,80.22,37a1.21,1.21,0,0,1,1.59.58h0A1.21,1.21,0,0,1,81.26,39.15Z"/><g class="cls-11"><path class="cls-12" d="M83.69,47.4H60.85l-.53-5H57.76l-.53,5H34.39a1.31,1.31,0,0,0-.1,2.62l18.86,1.52.46,35.92a1.86,1.86,0,0,0,1.86,1.82h0a1.85,1.85,0,0,0,1.85-1.79L58,65.8a1,1,0,0,1,1-1h0a1,1,0,0,1,1,1l.7,21.69a1.85,1.85,0,0,0,1.85,1.79h0a1.86,1.86,0,0,0,1.86-1.82l.46-35.92L83.79,50a1.31,1.31,0,0,0-.1-2.62Z"/><path class="cls-12" d="M62.29,41.49c0,2.12-1.46,4.37-3.25,4.37s-3.24-2.25-3.24-4.37a3.25,3.25,0,1,1,6.49,0Z"/></g><path class="cls-13" d="M81.69,45.4H58.85l-.53-5H55.76l-.53,5H32.39a1.31,1.31,0,0,0-.1,2.62l18.86,1.52.46,35.92a1.86,1.86,0,0,0,1.86,1.82h0a1.85,1.85,0,0,0,1.85-1.79L56,63.8a1,1,0,0,1,1-1h0a1,1,0,0,1,1,1l.7,21.69a1.85,1.85,0,0,0,1.85,1.79h0a1.86,1.86,0,0,0,1.86-1.82l.46-35.92L81.79,48a1.31,1.31,0,0,0-.1-2.62Z"/><path class="cls-14" d="M51.19,52.31l.42,33.15a1.86,1.86,0,0,0,3.71,0L56,63.8a1,1,0,0,1,2,0l.7,21.69a1.86,1.86,0,0,0,3.71,0V85.4"/><path class="cls-14" d="M62.5,82.85l.43-33.31H63"/><path class="cls-14" d="M65.89,49.3,81.79,48a1.31,1.31,0,0,0-.1-2.62H59.26"/><path class="cls-14" d="M58.32,40.41H55.76l-.18,1.7"/><path class="cls-14" d="M55.23,45.4H32.39a1.31,1.31,0,0,0-.1,2.62l18.86,1.52"/><path class="cls-15" d="M60.29,39.49c0,2.12-1.46,4.37-3.25,4.37s-3.24-2.25-3.24-4.37a3.25,3.25,0,1,1,6.49,0Z"/></g></g></g></svg>