<svg xmlns="http://www.w3.org/2000/svg" viewBox="0 0 114.08 114.08"><defs><style>.cls-1{opacity:0.6;}.cls-2{opacity:0.5;}.cls-10,.cls-11,.cls-3,.cls-6,.cls-8{fill:none;}.cls-3,.cls-4{stroke:#d0e2f7;}.cls-10,.cls-11,.cls-3,.cls-4,.cls-8{stroke-linecap:round;stroke-linejoin:round;stroke-width:1.5px;}.cls-4{fill:#fff;}.cls-5{fill:#f2a58e;}.cls-7{fill:#d0e2f7;}.cls-8{stroke:#294260;}.cls-9{fill:#ed6e47;}.cls-10,.cls-11{stroke:#fff;}.cls-11{opacity:0.2;}</style></defs><title>Asset 88</title><g id="Layer_2" data-name="Layer 2"><g id="lineart"><g class="cls-1"><g class="cls-2"><path class="cls-3" d="M72.17,96.9a42.18,42.18,0,0,1-43.78-9"/><path class="cls-3" d="M25.75,85.19c-.37-.43-.74-.86-1.09-1.3"/><path class="cls-3" d="M30.68,24.89A42.13,42.13,0,0,1,97.2,43.53"/><path class="cls-3" d="M98.44,47.79a42.52,42.52,0,0,1,1.11,9.64A42.05,42.05,0,0,1,83,90.93"/><path class="cls-3" d="M33.39,40.49a29.41,29.41,0,0,1,46.18-2.4"/><circle class="cls-4" cx="44.72" cy="97.45" r="3.7"/><circle class="cls-4" cx="77.25" cy="36.38" r="3.7"/></g><circle class="cls-5" cx="96.41" cy="41.98" r="2.37"/><circle class="cls-5" cx="24.38" cy="84.04" r="2.96"/><circle class="cls-5" cx="82.85" cy="78.79" r="1.9"/><circle class="cls-5" cx="57.61" cy="21.83" r="1.9"/></g><circle class="cls-6" cx="57.04" cy="57.04" r="57.04"/><path class="cls-7" d="M80.4,37H56.34a4.44,4.44,0,0,0-4.44,4.44V54a4.44,4.44,0,0,0,4.44,4.44H80.4A4.44,4.44,0,0,0,84.84,54V42.34L89.77,37Z"/><path class="cls-8" d="M85.12,42l4.65-5H56.34a4.44,4.44,0,0,0-4.44,4.44v10"/><path class="cls-8" d="M52.37,56a4.44,4.44,0,0,0,4,2.45H80.4A4.44,4.44,0,0,0,84.84,54v-7.9"/><line class="cls-8" x1="59.83" y1="43.65" x2="65.33" y2="43.65"/><line class="cls-8" x1="59.83" y1="47.67" x2="73.68" y2="47.67"/><line class="cls-8" x1="59.83" y1="51.78" x2="71.48" y2="51.78"/><path class="cls-9" d="M57.74,55.65H24.31L29.24,61V72.63a4.44,4.44,0,0,0,4.45,4.44H57.74a4.44,4.44,0,0,0,4.45-4.44V60.1A4.45,4.45,0,0,0,57.74,55.65Z"/><path class="cls-8" d="M29.24,65.53v7.1a4.44,4.44,0,0,0,4.45,4.44H57.74a4.44,4.44,0,0,0,4.45-4.44V70.27"/><path class="cls-8" d="M62.19,66V60.1a4.45,4.45,0,0,0-4.45-4.45H24.31L29.24,61v.1"/><polyline class="cls-10" points="39.03 65.63 43.63 70.23 52.4 61.45"/><line class="cls-11" x1="36.89" y1="62.22" x2="34.49" y2="61.36"/><line class="cls-11" x1="36.27" y1="65.62" x2="32.27" y2="65.62"/><line class="cls-11" x1="36.89" y1="68.86" x2="34.83" y2="69.89"/><line class="cls-11" x1="54.43" y1="62.22" x2="56.83" y2="61.36"/><line class="cls-11" x1="55.05" y1="65.62" x2="59.05" y2="65.62"/><line class="cls-11" x1="54.43" y1="68.86" x2="56.49" y2="69.89"/></g></g></svg>